<?xml version="1.0" encoding="utf-8"?>
<!-- Generator: Adobe Illustrator 27.6.1, SVG Export Plug-In . SVG Version: 6.00 Build 0)  -->
<svg version="1.1" id="Ebene_1" xmlns="http://www.w3.org/2000/svg" xmlns:xlink="http://www.w3.org/1999/xlink" x="0px" y="0px"
	 viewBox="0 0 500 1000" style="enable-background:new 0 0 500 1000;" xml:space="preserve">
<style type="text/css">
	.st0{fill:#1E1E1C;stroke:#FFFFFF;stroke-width:5;stroke-miterlimit:10;}
	.st1{fill:#E8E6E6;stroke:#E8E6E6;stroke-width:2;stroke-miterlimit:10;}
	.st2{fill:#FEEA5C;stroke:#FDD65E;stroke-width:14;stroke-miterlimit:10;}
	.st3{fill:#FFFFFF;stroke:#FFFFFF;stroke-miterlimit:10;}
	.st4{fill:#FDD65E;}
	.st5{fill:none;stroke:#FFFFFF;stroke-width:15;stroke-miterlimit:10;}
</style>
<ellipse class="st0" cx="250.1" cy="630.1" rx="14.5" ry="5.9"/>
<ellipse class="st1" cx="250.3" cy="643.2" rx="40.7" ry="14.7"/>
<ellipse class="st1" cx="250.1" cy="662.2" rx="47" ry="19"/>
<path class="st1" d="M297.2,684.1c0-6-21.1-10.9-47-10.9s-47,4.9-47,10.9c0,6,21.1,10.9,47,10.9S297.2,690.1,297.2,684.1z"/>
<path class="st2" d="M292.5,694.5l-86.5-1.2c0,0-9.3,2.3-12.9,11.1c-3.5,8.8,0.3,17.9-2.9,21.8S156,772.4,158,817.3
	c2,44.9,38.1,96.3,89,96.3s94-42.6,94-97.3c0-54.7-27.5-74.5-28.7-80c-1.2-5.5,0-32.9-10-38.7c-4.3-2.5-8.8-3-8.8-3L292.5,694.5
	L292.5,694.5z"/>
<path class="st3" d="M264.4,867c2.7,3.1,12.5-1.1,21.8-9.5c9.3-8.3,14.6-17.5,11.8-20.6c-2.7-3.1-12.5,1.1-21.8,9.5
	C267,854.7,261.6,864,264.4,867L264.4,867z"/>
<ellipse transform="matrix(0.8538 -0.5207 0.5207 0.8538 -326.9554 303.3941)" class="st4" cx="376.6" cy="733.7" rx="23.9" ry="6.7"/>
<ellipse class="st4" cx="395.6" cy="809.4" rx="23.7" ry="6.8"/>
<ellipse transform="matrix(0.5207 -0.8538 0.8538 0.5207 -579.6329 748.3538)" class="st4" cx="376.6" cy="890.4" rx="6.7" ry="23.9"/>
<ellipse transform="matrix(0.8774 -0.4798 0.4798 0.8774 -414.6537 271.1054)" class="st4" cx="323.1" cy="946.8" rx="6.6" ry="24.5"/>
<ellipse transform="matrix(0.5207 -0.8538 0.8538 0.5207 -568.6516 457.7718)" class="st4" cx="123.4" cy="735.3" rx="6.7" ry="23.9"/>
<ellipse class="st4" cx="104.4" cy="810.9" rx="23.7" ry="6.8"/>
<ellipse transform="matrix(0.8538 -0.5207 0.5207 0.8538 -446.3259 194.6598)" class="st4" cx="123.4" cy="891.9" rx="23.9" ry="6.7"/>
<ellipse transform="matrix(0.4798 -0.8774 0.8774 0.4798 -740.0637 648.6185)" class="st4" cx="177" cy="948.4" rx="24.5" ry="6.6"/>
<path class="st4" d="M250.4,1000c-3.6,0-6.5-11.1-6.5-24.8c0-13.7,2.9-24.8,6.5-24.8s6.5,11.1,6.5,24.8
	C256.9,988.9,254,1000,250.4,1000z"/>
<path class="st5" d="M237.3-119.3c1.3,113.7-31.6,2.8-38.7,222.9c-6.8,209.2,52.9,417.2,50.9,520.6"/>
</svg>
