<?xml version="1.0" encoding="utf-8"?>
<!-- Generator: Adobe Illustrator 27.5.0, SVG Export Plug-In . SVG Version: 6.00 Build 0)  -->
<svg version="1.1" id="Ebene_1" xmlns="http://www.w3.org/2000/svg" xmlns:xlink="http://www.w3.org/1999/xlink" x="0px" y="0px"
	 viewBox="0 0 322.6 322.6" style="enable-background:new 0 0 322.6 322.6;" xml:space="preserve">
<style type="text/css">
	.st0{fill:none;stroke:#FFFFFF;stroke-width:15;stroke-miterlimit:10;}
	.st1{fill:#FFFFFF;stroke:#FFFFFF;stroke-width:5;stroke-miterlimit:10;}
	.st2{fill:#E7E6E6;stroke:#E7E6E6;stroke-width:2;stroke-miterlimit:10;}
	.st3{fill:#FEE959;stroke:#FDD65C;stroke-width:4;stroke-miterlimit:10;}
	.st4{fill:#FFFFFF;stroke:#FFFFFF;stroke-miterlimit:10;}
	.st5{fill:#FDD65C;}
</style>
<path class="st0" d="M310.5,161.3c0-94.9-90.6-149.1-149-149.2c-0.1,0-0.2,0-0.2,0c-58.4,0-149.2,54.2-149.2,149.2
	c0,82.4,66.8,149.2,149.2,149.2S310.5,243.7,310.5,161.3L310.5,161.3z"/>
<ellipse class="st1" cx="157.2" cy="74.2" rx="8.5" ry="3.5"/>
<ellipse class="st2" cx="157.3" cy="81.8" rx="23.7" ry="8.6"/>
<ellipse class="st2" cx="157.2" cy="93.8" rx="27.3" ry="11"/>
<path class="st2" d="M184.4,106.5c0-3.5-12.2-6.3-27.3-6.3s-27.3,2.8-27.3,6.3s12.2,6.3,27.3,6.3S184.4,110,184.4,106.5z"/>
<path class="st3" d="M182.7,112.5l-50.7-0.7c0,0-5.4,1.3-7.5,6.4s0.2,10.4-1.7,12.6c-1.9,2.3-19.9,26.8-18.7,52.8
	c1.2,26,22.1,55.8,51.6,55.8s54.5-24.7,54.5-56.4s-15.9-43.2-16.6-46.4c-0.7-3.2,0-19.1-5.8-22.4
	C185.2,112.8,182.6,112.5,182.7,112.5L182.7,112.5z"/>
<path class="st4" d="M166.9,224.6c1.9,2.1,8.5-0.8,14.9-6.4c6.3-5.7,9.9-12,8.1-14.1c-1.9-2.1-8.5,0.8-14.9,6.4
	C168.7,216.3,165,222.5,166.9,224.6z"/>
<ellipse transform="matrix(0.8537 -0.5207 0.5207 0.8537 -36.3267 139.9444)" class="st5" cx="230.9" cy="134.6" rx="14" ry="3.9"/>
<ellipse class="st5" cx="242" cy="178.7" rx="13.8" ry="4"/>
<ellipse transform="matrix(0.5207 -0.8537 0.8537 0.5207 -82.2427 305.4898)" class="st5" cx="231" cy="226" rx="3.9" ry="14"/>
<ellipse transform="matrix(0.8774 -0.4798 0.4798 0.8774 -99.7183 127.5515)" class="st5" cx="199.7" cy="258.9" rx="3.8" ry="14.3"/>
<ellipse transform="matrix(0.5207 -0.8537 0.8537 0.5207 -75.8253 136.0367)" class="st5" cx="83.2" cy="135.6" rx="3.9" ry="14"/>
<ellipse class="st5" cx="72.2" cy="179.7" rx="13.8" ry="4"/>
<ellipse transform="matrix(0.8537 -0.5207 0.5207 0.8537 -105.9505 76.5319)" class="st5" cx="83.3" cy="226.9" rx="14" ry="3.9"/>
<ellipse transform="matrix(0.4798 -0.8774 0.8774 0.4798 -168.4077 235.6397)" class="st5" cx="114.5" cy="259.8" rx="14.3" ry="3.8"/>
<path class="st5" d="M157.3,289.9c-2.1,0-3.8-6.5-3.8-14.5s1.7-14.5,3.8-14.5s3.8,6.5,3.8,14.5C161.1,283.4,159.4,289.9,157.3,289.9
	z"/>
<path class="st0" d="M155,10.5c0.6,5.5,3-2.2-4.8,12.3c-5.5,10.2-18.5,1.5-22.7,14.9c-4,12.7,30.9,25.2,29.7,31.5"/>
</svg>
